<svg width="228" height="64" viewBox="0 0 228 64" fill="none" xmlns="http://www.w3.org/2000/svg">
<g clip-path="url(#clip0_1_309)">
<path d="M45.7723 61.314C45.4327 61.4987 45.0889 61.675 44.741 61.8428C43.7595 62.3171 42.7448 62.7116 41.7094 63.0389C41.6597 62.9382 41.61 62.8333 41.5645 62.7283C40.906 61.142 41.2911 59.4675 42.4218 58.9891C43.5524 58.5106 44.9978 59.4045 45.6522 60.9909C45.6977 61.1 45.735 61.2049 45.7723 61.314Z" fill="#E32929"/>
<path d="M53.3346 56.0471C52.5395 57.2768 51.5579 58.3973 50.4397 59.3709C49.5203 60.1725 48.5056 60.865 47.4329 61.4525C47.201 61.5784 46.965 61.7043 46.7289 61.8176C45.8467 62.2499 44.9397 62.6108 44.0079 62.9046C42.1069 63.5089 40.1231 63.8362 38.1476 63.9495C35.1988 64.1216 32.2542 63.8278 29.3924 63.2235C27.9636 62.9171 26.5555 62.5311 25.1763 62.0652C24.4847 61.8302 23.8013 61.5784 23.1304 61.3014C22.4595 61.0244 21.7927 60.7307 21.1466 60.3865C22.5464 60.76 23.9504 61.0874 25.3586 61.3686C26.7667 61.6539 28.1748 61.8973 29.5871 62.0862C32.4116 62.4681 35.2527 62.6444 38.0648 62.4807C39.8042 62.3758 41.5395 62.145 43.2293 61.7295C44.2605 61.4735 45.2794 61.1545 46.2692 60.7558C46.6212 60.6173 46.965 60.4663 47.3087 60.3068C48.2406 59.8745 49.1434 59.3667 50.009 58.7876C50.6054 58.3973 51.1686 57.9566 51.7277 57.5076L52.1419 57.1592C52.2785 57.0417 52.4069 56.9158 52.5436 56.7941C52.8211 56.5591 53.0696 56.2947 53.3346 56.0471Z" fill="#020288"/>
<path d="M146.341 21.0801L147.377 21.0633C148.789 21.0381 149.899 21.3025 150.711 21.8565C151.522 22.4105 151.936 23.1827 151.953 24.1815C151.97 25.2097 151.601 25.9903 150.847 26.5232C150.089 27.0562 148.971 27.3374 147.488 27.3626L146.453 27.3794L146.668 40.1584C146.697 41.9168 146.416 43.2346 145.819 44.1159C145.223 44.9972 144.316 45.4505 143.094 45.4714C141.889 45.4924 140.986 45.077 140.382 44.2208C139.777 43.3647 139.462 42.0553 139.433 40.2801L139.218 27.5011H138.953C137.702 27.5263 136.716 27.2661 135.996 26.7205C135.275 26.1749 134.906 25.4237 134.89 24.4711C134.873 23.489 135.217 22.721 135.921 22.1754C136.625 21.6257 137.69 21.3025 139.114 21.2018C139.114 21.0675 139.102 20.8619 139.081 20.5891C139.06 20.3121 139.052 20.1107 139.048 19.9764C138.994 16.8624 139.595 14.4619 140.845 12.7706C142.096 11.0793 143.914 10.2148 146.292 10.1728C147.745 10.1476 148.901 10.454 149.75 11.0835C150.599 11.7172 151.034 12.5943 151.05 13.7107C151.067 14.592 150.835 15.2634 150.354 15.7335C149.878 16.2035 149.046 16.5392 147.857 16.7365C147.17 16.8666 146.735 17.0722 146.557 17.3492C146.378 17.6304 146.296 18.3354 146.316 19.4644L146.345 21.0717L146.341 21.0801Z" fill="#C40C0C"/>
<path d="M152.446 31.3873C152.877 27.6564 154.359 24.7229 156.894 22.5825C159.429 20.4422 162.435 19.5819 165.91 19.9932C169.401 20.4044 172.126 21.9446 174.085 24.6054C176.044 27.2661 176.806 30.4724 176.376 34.2159C175.945 37.9593 174.471 40.9054 171.961 43.0458C169.447 45.1861 166.448 46.0506 162.957 45.6351C159.482 45.2239 156.753 43.6795 154.773 40.9978C152.794 38.316 152.019 35.114 152.45 31.3831L152.446 31.3873ZM159.776 32.1637C159.565 33.9976 159.826 35.5252 160.559 36.7465C161.292 37.9677 162.352 38.6602 163.74 38.8239C165.127 38.9875 166.316 38.5595 167.31 37.5355C168.3 36.5115 168.9 35.0888 169.111 33.2716C169.314 31.509 169.037 30.0191 168.283 28.7979C167.529 27.5766 166.477 26.8842 165.136 26.7247C163.761 26.561 162.576 26.9849 161.578 27.9921C160.58 28.9993 159.979 30.3926 159.776 32.1679V32.1637Z" fill="#C40C0C"/>
<path d="M177.983 33.8381C177.887 30.0862 178.948 26.968 181.155 24.492C183.367 22.0117 186.22 20.7275 189.716 20.6394C193.228 20.547 196.139 21.6802 198.45 24.0345C200.761 26.3889 201.962 29.4483 202.057 33.2169C202.153 36.9856 201.105 40.108 198.918 42.5882C196.731 45.0685 193.882 46.3527 190.366 46.4408C186.866 46.5331 183.955 45.3916 181.623 43.0247C179.291 40.6577 178.078 37.5941 177.983 33.8423V33.8381ZM185.342 33.5569C185.388 35.4034 185.86 36.8765 186.754 37.9802C187.649 39.084 188.796 39.6169 190.192 39.5792C191.588 39.5414 192.706 38.9497 193.542 37.7956C194.383 36.6415 194.777 35.1474 194.731 33.3177C194.685 31.5467 194.205 30.1072 193.29 29.0076C192.374 27.9081 191.235 27.3709 189.885 27.4087C188.502 27.4423 187.388 28.034 186.543 29.1713C185.698 30.3128 185.297 31.7733 185.342 33.5611V33.5569Z" fill="#C40C0C"/>
<path d="M221.108 43.9144C220.375 44.7202 219.522 45.3371 218.549 45.7568C217.572 46.1764 216.503 46.3905 215.343 46.3947C212.357 46.4073 209.777 45.1734 207.599 42.6848C205.42 40.2003 204.323 37.1703 204.306 33.5947C204.29 30.0191 205.346 27.0016 207.479 24.5423C209.607 22.0831 212.192 20.845 215.236 20.8324C216.337 20.8283 217.344 20.9919 218.259 21.3235C219.17 21.655 220.036 22.167 220.848 22.8637L220.819 16.2706C220.81 14.4828 221.096 13.1566 221.672 12.2879C222.247 11.4234 223.146 10.9869 224.368 10.9785C225.544 10.9743 226.426 11.4066 227.01 12.2753C227.594 13.1441 227.892 14.466 227.896 16.237L228 40.9515C228.008 42.7393 227.727 44.0613 227.155 44.9216C226.588 45.782 225.706 46.2142 224.513 46.2184C223.809 46.2184 223.167 46.0254 222.591 45.6351C222.015 45.2448 221.523 44.6656 221.104 43.9102L221.108 43.9144ZM211.624 33.6534C211.633 35.4412 212.08 36.8933 212.966 38.0054C213.852 39.1176 214.979 39.6715 216.346 39.6673C217.712 39.6631 218.826 39.1008 219.692 37.9886C220.553 36.8765 220.98 35.4161 220.976 33.6157C220.968 31.7817 220.533 30.3086 219.667 29.1839C218.802 28.0634 217.679 27.5052 216.296 27.5136C214.913 27.5178 213.786 28.0886 212.916 29.2259C212.047 30.3632 211.616 31.8404 211.624 33.6576V33.6534Z" fill="#C40C0C"/>
<path d="M69.4908 38.4755L69.2465 24.0891C69.2175 22.4314 69.4784 21.1892 70.0292 20.3624C70.5801 19.5357 71.4332 19.116 72.5887 19.095C73.7318 19.074 74.5932 19.4685 75.1772 20.2743C75.7611 21.0801 76.0676 22.3139 76.0966 23.9716L76.3782 40.599C76.4362 43.9186 75.7321 46.4451 74.266 48.1783C72.7999 49.9116 70.6339 50.8055 67.7555 50.8558C65.5108 50.8936 63.6388 50.4403 62.1396 49.5003C60.6362 48.556 59.8742 47.3809 59.8493 45.9708C59.8328 45.035 60.1144 44.267 60.6859 43.6542C61.2616 43.0457 62.0154 42.731 62.9513 42.7142C63.5436 42.7058 64.3098 42.945 65.254 43.436C66.1983 43.9312 66.8899 44.1704 67.3289 44.1621C68.1407 44.1495 68.7122 43.734 69.0435 42.9198C69.3749 42.1057 69.5198 40.6242 69.4867 38.4755H69.4908Z" fill="#FE8100"/>
<path d="M89.5317 21.9488C92.8035 21.8942 95.5121 22.8637 97.6533 24.8571C99.7986 26.8547 100.896 29.4147 100.95 32.5455C101.004 35.6888 99.9932 38.2866 97.9266 40.3346C95.8558 42.3826 93.1804 43.436 89.8962 43.4947C86.6119 43.5535 83.8992 42.5924 81.7539 40.6158C79.6086 38.6391 78.5111 36.0791 78.4572 32.9358C78.4034 29.805 79.4181 27.2031 81.5013 25.1341C83.5845 23.0651 86.2599 22.0033 89.5317 21.9446V21.9488ZM89.7222 28.5376C88.1112 28.567 86.8231 28.9741 85.8582 29.7673C84.889 30.5604 84.4169 31.5803 84.4376 32.8309C84.4583 34.0815 84.9677 35.0845 85.97 35.8441C86.9681 36.6037 88.2685 36.9688 89.863 36.9395C91.4078 36.9143 92.6627 36.4946 93.6318 35.6804C94.5968 34.8663 95.0731 33.8549 95.0524 32.6462C95.0317 31.4082 94.5264 30.4094 93.5407 29.6414C92.555 28.8776 91.2794 28.5041 89.7222 28.5334V28.5376Z" fill="#FE8100"/>
<path d="M102.764 38.5888L102.549 25.7804C102.524 24.2024 102.76 23.0189 103.269 22.2341C103.775 21.4494 104.553 21.0465 105.605 21.0297C106.214 21.0171 106.773 21.185 107.278 21.5249C107.784 21.8648 108.239 22.3852 108.641 23.0903C109.279 22.3559 110.003 21.8103 110.815 21.4536C111.627 21.0968 112.567 20.9122 113.631 20.8912C114.982 20.866 116.178 21.0968 117.226 21.5795C118.274 22.0621 119.181 22.7965 119.951 23.7827C120.879 22.7 121.836 21.9194 122.813 21.4326C123.791 20.9499 124.93 20.6939 126.23 20.673C128.475 20.6352 130.235 21.3319 131.506 22.7713C132.778 24.2108 133.436 26.2588 133.478 28.9153L133.631 38.0516C133.656 39.617 133.416 40.7878 132.91 41.5559C132.405 42.328 131.618 42.7225 130.554 42.7393C129.489 42.7561 128.698 42.3952 128.176 41.644C127.659 40.897 127.385 39.7345 127.356 38.1565L127.236 30.9549C127.207 29.2846 126.959 28.0634 126.483 27.2954C126.01 26.5274 125.277 26.1497 124.292 26.1707C123.202 26.1917 122.411 26.5861 121.914 27.3583C121.422 28.1305 121.19 29.3392 121.215 30.9843L121.339 38.2656C121.364 39.831 121.123 41.0019 120.618 41.7699C120.113 42.5421 119.326 42.9366 118.262 42.9534C117.197 42.9701 116.398 42.605 115.868 41.8496C115.338 41.0942 115.056 39.9359 115.031 38.3705L114.911 31.169C114.882 29.4861 114.634 28.2606 114.17 27.501C113.702 26.7414 112.981 26.3679 112.008 26.3847C110.919 26.4015 110.124 26.8002 109.631 27.5682C109.138 28.3404 108.906 29.549 108.931 31.1941L109.055 38.4755C109.08 40.0408 108.84 41.2117 108.334 41.9797C107.829 42.7519 107.042 43.1464 105.978 43.1632C104.913 43.18 104.118 42.8149 103.592 42.0595C103.066 41.304 102.789 40.1458 102.764 38.5804V38.5888Z" fill="#FE8100"/>
<path d="M73.2128 16.8167C75.0628 16.7771 76.5347 15.4094 76.5003 13.7618C76.466 12.1142 74.9384 10.8107 73.0884 10.8503C71.2384 10.8899 69.7665 12.2576 69.8008 13.9052C69.8352 15.5528 71.3628 16.8563 73.2128 16.8167Z" fill="#FE8100"/>
<path d="M32.4368 53.2776C29.4134 53.9659 26.299 54.1127 23.226 53.7141C8.6519 51.8213 -1.64811 38.3121 0.219729 23.5396C2.08756 8.76717 15.4192 -1.67008 29.9974 0.222641C44.5756 2.11536 54.8756 15.6246 53.0078 30.3971C52.6061 33.5614 51.6576 36.6292 50.1998 39.4578" fill="#FE8100"/>
<path d="M24.6504 38.3328C22.8406 38.7441 20.9727 38.8322 19.1339 38.593C10.4035 37.4599 4.23263 29.3686 5.35085 20.5219C6.4732 11.6752 14.4581 5.42211 23.1885 6.55523C31.9188 7.68834 38.0897 15.7796 36.9715 24.6263C36.7313 26.5232 36.1639 28.3572 35.29 30.0527" fill="url(#paint0_linear_1_309)"/>
<path d="M39.0174 40.5067C42.7944 37.2081 48.4973 37.2081 52.2703 40.5067C55.5255 44.3341 55.5255 50.113 52.2703 53.9362C48.4932 57.2348 42.7903 57.2348 39.0174 53.9362C35.7621 50.1088 35.7621 44.3299 39.0174 40.5067Z" fill="#E32929"/>
<path d="M21.6685 45.0266C24.9693 42.1392 29.9557 42.1392 33.2566 45.0266C36.1059 48.3714 36.1059 53.4242 33.2566 56.769C29.9557 59.6564 24.9693 59.6564 21.6685 56.769C18.8191 53.4242 18.8191 48.3714 21.6685 45.0266Z" fill="#E32929"/>
<path d="M43.2086 24.0766C42.198 16.6652 36.0851 10.8947 28.5641 10.5547V8.82989C28.5641 7.659 27.6198 6.70215 26.4643 6.70215C25.3088 6.70215 24.3646 7.659 24.3646 8.82989V10.5547C16.8642 10.8737 10.7265 16.6442 9.72009 24.0766H43.2086Z" fill="white"/>
<path d="M45.2711 33.5317L46.9111 28.3362H6.01758L7.65763 33.5317C7.93097 34.4046 8.75099 35.0216 9.65385 35.0216H43.2749C44.1984 35.0216 44.9977 34.4256 45.2711 33.5317Z" fill="white"/>
<path d="M42.8276 53.3655C44.1543 53.3655 45.2297 52.2757 45.2297 50.9314C45.2297 49.5871 44.1543 48.4973 42.8276 48.4973C41.501 48.4973 40.4255 49.5871 40.4255 50.9314C40.4255 52.2757 41.501 53.3655 42.8276 53.3655Z" fill="white"/>
<path d="M29.8688 56.7858C31.1954 56.7858 32.2709 55.696 32.2709 54.3517C32.2709 53.0074 31.1954 51.9176 29.8688 51.9176C28.5421 51.9176 27.4667 53.0074 27.4667 54.3517C27.4667 55.696 28.5421 56.7858 29.8688 56.7858Z" fill="white"/>
</g>
<defs>
<linearGradient id="paint0_linear_1_309" x1="29.9723" y1="31.5005" x2="7.96662" y2="9.78421" gradientUnits="userSpaceOnUse">
<stop stop-color="#FE8100"/>
<stop offset="1" stop-color="#C1272D" stop-opacity="0"/>
</linearGradient>
<clipPath id="clip0_1_309">
<rect width="228" height="64" fill="white"/>
</clipPath>
</defs>
</svg>
