<svg xmlns="http://www.w3.org/2000/svg" fill="none" viewBox="0 0 37.123931623931625 39" style="max-height: 500px" width="37.123931623931625" height="39">
<rect fill="#C40C0C" rx="5" height="39" width="37"/>
<path fill="white" d="M20.1819 14.0341H11.2122C10.98 14.0341 10.7917 13.8356 10.7917 13.5909C10.7917 13.3461 10.98 13.1477 11.2122 13.1477H20.1819C20.4141 13.1477 20.6024 13.3461 20.6024 13.5909C20.6024 13.8356 20.4141 14.0341 20.1819 14.0341Z"/>
<path fill="white" d="M25.7879 19.9431H16.8182C16.586 19.9431 16.3977 19.7447 16.3977 19.4999C16.3977 19.2552 16.586 19.0568 16.8182 19.0568H25.7879C26.0201 19.0568 26.2083 19.2552 26.2083 19.4999C26.2083 19.7447 26.0201 19.9431 25.7879 19.9431Z"/>
<path fill="white" d="M25.788 25.8523H20.1819C19.9497 25.8523 19.7615 25.6539 19.7615 25.4091C19.7615 25.1644 19.9497 24.9659 20.1819 24.9659H25.788C26.0202 24.9659 26.2084 25.1644 26.2084 25.4091C26.2084 25.6539 26.0202 25.8523 25.788 25.8523Z"/>
<path fill="white" d="M16.8183 25.8523H11.2122C10.98 25.8523 10.7917 25.6539 10.7917 25.4091C10.7917 25.1644 10.98 24.9659 11.2122 24.9659H16.8183C17.0505 24.9659 17.2387 25.1644 17.2387 25.4091C17.2387 25.6539 17.0505 25.8523 16.8183 25.8523Z"/>
<path fill="white" d="M21.8637 15.8068C20.7027 15.8068 19.7615 14.8147 19.7615 13.5909C19.7615 12.3671 20.7027 11.375 21.8637 11.375C23.0248 11.375 23.966 12.3671 23.966 13.5909C23.966 14.8147 23.0248 15.8068 21.8637 15.8068ZM21.8637 12.2614C21.1671 12.2614 20.6024 12.8566 20.6024 13.5909C20.6024 14.3252 21.1671 14.9205 21.8637 14.9205C22.5604 14.9205 23.1251 14.3252 23.1251 13.5909C23.1251 12.8566 22.5604 12.2614 21.8637 12.2614Z"/>
<path fill="white" d="M15.1365 21.7159C13.9754 21.7159 13.0342 20.7238 13.0342 19.5C13.0342 18.2762 13.9754 17.2841 15.1365 17.2841C16.2975 17.2841 17.2387 18.2762 17.2387 19.5C17.2387 20.7238 16.2975 21.7159 15.1365 21.7159ZM15.1365 18.1704C14.4398 18.1704 13.8751 18.7657 13.8751 19.5C13.8751 20.2342 14.4398 20.8295 15.1365 20.8295C15.8331 20.8295 16.3978 20.2342 16.3978 19.5C16.3978 18.7657 15.8331 18.1704 15.1365 18.1704Z"/>
<path fill="white" d="M18.5 27.6251C17.3389 27.6251 16.3977 26.633 16.3977 25.4091C16.3977 24.1853 17.3389 23.1932 18.5 23.1932C19.661 23.1932 20.6023 24.1853 20.6023 25.4091C20.6023 26.633 19.661 27.6251 18.5 27.6251ZM18.5 24.0796C17.8034 24.0796 17.2386 24.6749 17.2386 25.4091C17.2386 26.1434 17.8034 26.7387 18.5 26.7387C19.1966 26.7387 19.7613 26.1434 19.7613 25.4091C19.7613 24.6749 19.1966 24.0796 18.5 24.0796Z"/>
<path fill="white" d="M25.7879 14.0341H23.5455C23.3133 14.0341 23.125 13.8356 23.125 13.5909C23.125 13.3461 23.3133 13.1477 23.5455 13.1477H25.7879C26.0201 13.1477 26.2083 13.3461 26.2083 13.5909C26.2083 13.8356 26.0201 14.0341 25.7879 14.0341Z"/>
<path fill="white" d="M13.4546 19.9431H11.2122C10.98 19.9431 10.7917 19.7447 10.7917 19.4999C10.7917 19.2552 10.98 19.0568 11.2122 19.0568H13.4546C13.6868 19.0568 13.8751 19.2552 13.8751 19.4999C13.8751 19.7447 13.6868 19.9431 13.4546 19.9431Z"/>
</svg>